<svg xmlns="http://www.w3.org/2000/svg" xmlns:xlink="http://www.w3.org/1999/xlink" width="257" height="257" viewBox="0 0 257 257">
  <defs>
    <circle id="logo-a" cx="128.5" cy="128.5" r="125"/>
  </defs>
  <g fill="none" fill-rule="evenodd">
    <circle cx="128" cy="128" r="125" fill="#FFF" transform="translate(.5 .5)"/>
    <mask id="logo-b" fill="#fff">
      <use xlink:href="#logo-a"/>
    </mask>
    <g mask="url(#logo-b)">
      <g transform="translate(57 30)">
        <path fill="#23A566" fill-rule="nonzero" d="M143,186.554913 C143,192.87586 137.850702,198 131.498721,198 L11.5012788,198 C5.14929792,198 0,192.87586 0,186.554913 L0,11.4450867 C0,5.12413986 5.14929792,1.15947714e-15 11.5012788,0 L88.6564576,0 L143,55.3896416 L143,186.554913 Z"/>
        <polygon fill="#1C8F5A" fill-rule="nonzero" points="94 54 142 100 141.858 55.335"/>
        <path fill="#8ED1B1" fill-rule="nonzero" d="M143,55 L100.40829,55 C94.1076654,55 89,49.9095922 89,43.6302559 L89,0 L143,55 Z"/>
        <path fill="#FFF" d="M39,118 L105,118 L105,125.03103 L39,125.03103 L39,118 Z M39,135.96897 L105,135.96897 L105,143 L39,143 L39,135.96897 Z"/>
        <path fill="#FFF" d="M108,161 L34,161 L34,97 L108,97 L108,161 Z M43.1547336,106.142857 L43.1547336,151.857143 L98.8452664,151.857143 L98.8452664,106.142857 L43.1547336,106.142857 Z"/>
        <polygon fill="#FFF" points="66 102 75 102 75 157 66 157"/>
      </g>
    </g>
  </g>
</svg>
