<svg height="257" viewBox="0 0 257 257" width="257" xmlns="http://www.w3.org/2000/svg" xmlns:xlink="http://www.w3.org/1999/xlink"><defs><path id="a" d="m9.6 0h54.4531716l37.9468284 38.5703187v93.8296813c0 5.301934-4.2980664 9.6-9.6 9.6h-82.8c-5.3019336 0-9.6-4.298066-9.6-9.6v-122.8c0-5.3019336 4.2980664-9.6 9.6-9.6z"/><filter id="b" height="102.8%" width="103.9%" x="-2%" y="-.7%"><feOffset dx="0" dy="1" in="SourceAlpha" result="shadowOffsetOuter1"/><feGaussianBlur in="shadowOffsetOuter1" result="shadowBlurOuter1" stdDeviation=".5"/><feColorMatrix in="shadowBlurOuter1" type="matrix" values="0 0 0 0 0   0 0 0 0 0   0 0 0 0 0  0 0 0 0.2 0"/></filter><linearGradient id="c" x1="50%" x2="50%" y1="0%" y2="100%"><stop offset="0" stop-color="#28865d"/><stop offset="1" stop-color="#22a565"/></linearGradient></defs><g fill="none" fill-rule="evenodd"><circle cx="128.5" cy="128.5" fill="#1d4d35" r="125.5"/><g transform="translate(78 58)"><use fill="#000" filter="url(#b)" xlink:href="#a"/><use fill="#22a565" fill-rule="evenodd" xlink:href="#a"/><path d="m99.6036202 36.1016949 2.3963798 2.4686238v31.6197074l-33.862069-34.0883312z" fill="url(#c)"/><path d="m26 70h50v45h-50zm6 6v7h16v-7zm0 13v7h16v-7zm0 13v7h16v-7zm22-26v7h16v-7zm0 13v7h16v-7zm0 13v7h16v-7z" fill="#fff"/><path d="m64 .00054374 28.4-.00054374c5.3019336 0 9.6 4.2980664 9.6 9.6v.00054376l-.002152 28.39999994z" fill="#8ed0b0" transform="matrix(-1 0 0 -1 166 38.000544)"/></g></g></svg>