<?xml version="1.0" encoding="UTF-8"?>
<svg width="257px" height="257px" viewBox="0 0 257 257" version="1.1" xmlns="http://www.w3.org/2000/svg" xmlns:xlink="http://www.w3.org/1999/xlink">
    <!-- Generator: Sketch 52.6 (67491) - http://www.bohemiancoding.com/sketch -->
    <title>google-sheets/logo</title>
    <desc>Created with Sketch.</desc>
    <defs>
        <path d="M87.6,58 L142.053172,58 L180,96.5703187 L180,190.4 C180,195.701934 175.701934,200 170.4,200 L87.6,200 C82.2980664,200 78,195.701934 78,190.4 L78,67.6 C78,62.2980664 82.2980664,58 87.6,58 Z" id="path-1"></path>
        <filter x="-2.0%" y="-0.7%" width="103.9%" height="102.8%" filterUnits="objectBoundingBox" id="filter-2">
            <feOffset dx="0" dy="1" in="SourceAlpha" result="shadowOffsetOuter1"></feOffset>
            <feGaussianBlur stdDeviation="0.5" in="shadowOffsetOuter1" result="shadowBlurOuter1"></feGaussianBlur>
            <feColorMatrix values="0 0 0 0 0   0 0 0 0 0   0 0 0 0 0  0 0 0 0.2 0" type="matrix" in="shadowBlurOuter1"></feColorMatrix>
        </filter>
        <linearGradient x1="50%" y1="0%" x2="50%" y2="100%" id="linearGradient-3">
            <stop stop-color="#28865D" offset="0%"></stop>
            <stop stop-color="#22A565" offset="100%"></stop>
        </linearGradient>
    </defs>
    <g id="google-sheets/logo" stroke="none" stroke-width="1" fill="none" fill-rule="evenodd">
        <rect fill="#1D4D35" x="0" y="0" width="257" height="257"></rect>
        <g id="Rectangle-2">
            <use fill="black" fill-opacity="1" filter="url(#filter-2)" xlink:href="#path-1"></use>
            <use fill="#22A565" fill-rule="evenodd" xlink:href="#path-1"></use>
        </g>
        <path d="M177.60362,94.1016949 L180,96.5703187 L180,128.190026 L146.137931,94.1016949 L177.60362,94.1016949 Z" id="Combined-Shape" fill="url(#linearGradient-3)"></path>
        <path d="M104,128 L154,128 L154,173 L104,173 L104,128 Z M110,134 L110,141 L126,141 L126,134 L110,134 Z M110,147 L110,154 L126,154 L126,147 L110,147 Z M110,160 L110,167 L126,167 L126,160 L110,160 Z M132,134 L132,141 L148,141 L148,134 L132,134 Z M132,147 L132,154 L148,154 L148,147 L132,147 Z M132,160 L132,167 L148,167 L148,160 L132,160 Z" id="Combined-Shape" fill="#FFFFFF"></path>
        <path d="M142,58.0005437 L170.4,58 C175.701934,58 180,62.2980664 180,67.6 C180,67.6001813 180,67.6003625 180,67.6005438 L179.997848,96.0005437 L142,58.0005437 Z" id="Rectangle-2" fill="#8ED0B0" transform="translate(161.000000, 77.000272) scale(-1, -1) translate(-161.000000, -77.000272) "></path>
    </g>
</svg>