<svg xmlns="http://www.w3.org/2000/svg" xmlns:xlink="http://www.w3.org/1999/xlink" width="640" height="360" viewBox="0 0 640 360">
  <defs>
    <linearGradient id="picture-b" x1="50%" x2="50%" y1="100%" y2="10.003%">
      <stop offset="0%" stop-color="#FFF"/>
      <stop offset="100%" stop-color="#E7F5EE"/>
    </linearGradient>
    <rect id="picture-a" width="640" height="360"/>
  </defs>
  <g fill="none" fill-rule="evenodd">
    <rect width="640" height="360"/>
    <use fill="url(#picture-b)" xlink:href="#picture-a"/>
    <g transform="translate(227 32)">
      <path fill="#23A566" fill-rule="nonzero" d="M45.4832865 257.538759L23.8956039 257.538759 23.8956039 263.984015 39.2059322 263.984015C38.4493937 273.019893 30.9749848 276.864896 23.9219391 276.864896 14.8961474 276.864896 7.02192228 269.726239 7.02192228 259.717674 7.02192228 249.966727 14.5274546 242.457294 23.941092 242.457294 31.2048193 242.457294 35.4830924 247.113672 35.4830924 247.113672L39.969653 242.44044C39.969653 242.44044 34.2118204 236 23.7112575 236 10.3425517 236 0 247.344806 0 259.602108 0 271.616238 9.72726567 283.324597 24.0536151 283.324597 36.6514177 283.324597 45.8735263 274.642643 45.8735263 261.812322 45.8735263 259.101318 45.4832865 257.538759 45.4832865 257.538759L45.4832865 257.538759zM63.2547591 258.850924C67.6096437 258.850924 71.737088 262.394972 71.737088 268.098674 71.737088 273.681994 67.6287966 277.327163 63.2356062 277.327163 58.406688 277.327163 54.6000544 273.44123 54.6000544 268.052929 54.6000544 262.782602 58.3611999 258.850924 63.2547591 258.850924L63.2547591 258.850924zM63.1661771 252.877566C54.307973 252.877566 47.9611895 259.835649 47.9611895 267.961438 47.9611895 276.202794 54.1188384 283.298113 63.2715179 283.298113 71.5575298 283.298113 78.3424353 276.929902 78.3424353 268.134788 78.3424353 258.063625 70.4466631 252.877566 63.1661771 252.877566L63.1661771 252.877566zM96.3245894 258.850924C100.679474 258.850924 104.806918 262.394972 104.806918 268.098674 104.806918 273.681994 100.696233 277.327163 96.3030425 277.327163 91.4765183 277.327163 87.6674906 273.44123 87.6674906 268.052929 87.6674906 262.782602 91.4310302 258.850924 96.3245894 258.850924L96.3245894 258.850924zM96.2360074 252.877566C87.3778034 252.877566 81.0310199 259.835649 81.0310199 267.961438 81.0310199 276.202794 87.1886687 283.298113 96.3389541 283.298113 104.624966 283.298113 111.412266 276.929902 111.412266 268.134788 111.412266 258.063625 103.518888 252.877566 96.2360074 252.877566L96.2360074 252.877566zM129.26035 258.855739C133.246541 258.855739 137.340468 262.276997 137.340468 268.12275 137.340468 274.062401 133.253724 277.339201 129.171768 277.339201 124.83843 277.339201 120.80675 273.802376 120.80675 268.180534 120.80675 262.337188 124.994047 258.855739 129.26035 258.855739L129.26035 258.855739zM128.671399 252.892011C120.543398 252.892011 114.151127 260.052337 114.151127 268.089043 114.151127 277.245303 121.560894 283.317374 128.53254 283.317374 132.844331 283.317374 135.135494 281.595911 136.828129 279.621645L136.828129 282.619159C136.828129 287.870224 133.658328 291.007381 128.874898 291.007381 124.256661 291.007381 121.939164 287.554823 121.134743 285.595003L115.319452 288.041167C117.383174 292.423074 121.534559 297 128.925174 297 137.007687 297 143.170124 291.876539 143.170124 281.140867L143.170124 253.806915 136.828129 253.806915 136.828129 256.383091C134.879324 254.273997 132.212286 252.892011 128.671399 252.892011L128.671399 252.892011zM171.631294 258.704057C174.39649 258.704057 176.383601 260.182349 177.228722 261.956781L163.685246 267.648445C163.101083 263.240054 167.252469 258.704057 171.631294 258.704057L171.631294 258.704057zM171.367942 252.855897C163.69961 252.855897 157.259457 258.988159 157.259457 268.045706 157.259457 277.623303 164.436996 283.310152 172.102934 283.310152 178.504782 283.310152 182.431121 279.787772 184.774954 276.628947L179.546219 273.133052C178.191153 275.251776 175.921538 277.322348 172.136451 277.322348 167.884513 277.322348 165.928526 274.98212 164.717107 272.709307L185 264.248855 183.946592 261.766577C181.988211 256.910365 177.417856 252.855897 171.367942 252.855897L171.367942 252.855897zM147.58965 237.569782L154.250061 237.569782 154.250061 282.407286 147.58965 282.407286 147.58965 237.569782zM167 195.034682C167 201.642945 161.634648 207 155.01615 207L29.98385 207C23.3653524 207 18 201.642945 18 195.034682L18 11.9653179C18 5.35705531 23.3653524 1.21218064e-15 29.98385 0L110.376309 0 167 57.9073526 167 195.034682z"/>
      <polygon fill="#1C8F5A" fill-rule="nonzero" points="117 57 167 105 166.853 58.393"/>
      <path fill="#8ED1B1" fill-rule="nonzero" d="M167,58 L122.042084,58 C115.391425,58 110,52.6319336 110,46.0100881 L110,0 L167,58 Z"/>
      <path fill="#FFF" d="M59,123 L128,123 L128,130.312271 L59,130.312271 L59,123 Z M59,141.687729 L128,141.687729 L128,149 L59,149 L59,141.687729 Z"/>
      <path fill="#FFF" d="M132,169 L54,169 L54,102 L132,102 L132,169 Z M63.649584,111.571429 L63.649584,159.428571 L122.350416,159.428571 L122.350416,111.571429 L63.649584,111.571429 Z"/>
      <polygon fill="#FFF" points="88 107 98 107 98 164 88 164"/>
    </g>
  </g>
</svg>
