<svg height="360" viewBox="0 0 640 360" width="640" xmlns="http://www.w3.org/2000/svg" xmlns:xlink="http://www.w3.org/1999/xlink"><defs><path id="a" d="m9.6 0h54.4531716l37.9468284 38.5703187v93.8296813c0 5.301934-4.2980664 9.6-9.6 9.6h-82.8c-5.3019336 0-9.6-4.298066-9.6-9.6v-122.8c0-5.3019336 4.2980664-9.6 9.6-9.6z"/><filter id="b" height="102.8%" width="103.9%" x="-2%" y="-.7%"><feOffset dx="0" dy="1" in="SourceAlpha" result="shadowOffsetOuter1"/><feGaussianBlur in="shadowOffsetOuter1" result="shadowBlurOuter1" stdDeviation=".5"/><feColorMatrix in="shadowBlurOuter1" type="matrix" values="0 0 0 0 0   0 0 0 0 0   0 0 0 0 0  0 0 0 0.2 0"/></filter><linearGradient id="c" x1="50%" x2="50%" y1="0%" y2="100%"><stop offset="0" stop-color="#28865d"/><stop offset="1" stop-color="#22a565"/></linearGradient></defs><g fill="none" fill-rule="evenodd"><path d="m0 0h640v360h-640z" fill="#1d4d35"/><g transform="translate(121 110)"><use fill="#000" filter="url(#b)" xlink:href="#a"/><use fill="#22a565" fill-rule="evenodd" xlink:href="#a"/><path d="m99.6036202 36.1016949 2.3963798 2.4686238v31.6197074l-33.862069-34.0883312z" fill="url(#c)"/><path d="m26 70h50v45h-50zm6 6v7h16v-7zm0 13v7h16v-7zm0 13v7h16v-7zm22-26v7h16v-7zm0 13v7h16v-7zm0 13v7h16v-7z" fill="#fff"/><path d="m64 .00054374 28.4-.00054374c5.3019336 0 9.6 4.2980664 9.6 9.6v.00054376l-.002152 28.39999994z" fill="#8ed0b0" transform="matrix(-1 0 0 -1 166 38.000544)"/></g><g fill="#fff" fill-rule="nonzero" transform="translate(262 122)"><path d="m87.0268519 35.6471111c0 9.6484445-7.511 16.7582222-16.7287038 16.7582222-9.2177037 0-16.7287037-7.1097777-16.7287037-16.7582222 0-9.7164444 7.511-16.7582222 16.7287037-16.7582222 9.2177038 0 16.7287038 7.0417778 16.7287038 16.7582222zm-7.3230371 0c0-6.0293333-4.3532222-10.1546667-9.4056667-10.1546667-5.0524444 0-9.4056666 4.1253334-9.4056666 10.1546667 0 5.9688889 4.3532222 10.1546667 9.4056666 10.1546667 5.0524445 0 9.4056667-4.1933334 9.4056667-10.1546667z"/><path d="m123.115741 35.6471111c0 9.6484445-7.511 16.7582222-16.728704 16.7582222-9.2177037 0-16.7287037-7.1097777-16.7287037-16.7582222 0-9.7088889 7.511-16.7582222 16.7287037-16.7582222 9.217704 0 16.728704 7.0417778 16.728704 16.7582222zm-7.323037 0c0-6.0293333-4.353223-10.1546667-9.405667-10.1546667s-9.4056666 4.1253334-9.4056666 10.1546667c0 5.9688889 4.3532226 10.1546667 9.4056666 10.1546667s9.405667-4.1933334 9.405667-10.1546667z"/><path d="m157.700926 19.9013333v30.0862223c0 12.376-7.262889 17.4306666-15.849037 17.4306666-8.082408 0-12.946889-5.4324444-14.781408-9.8751111l6.375704-2.6671111c1.135296 2.7275556 3.917148 5.9462222 8.398185 5.9462222 5.496037 0 8.901926-3.4075555 8.901926-9.8222222v-2.4102222h-.255629c-1.639037 2.0324444-4.796815 3.808-8.78163 3.808-8.338037 0-15.976852-7.2986667-15.976852-16.6902222 0-9.4595556 7.638815-16.8186667 15.976852-16.8186667 3.977296 0 7.135074 1.7755555 8.78163 3.7475555h.255629v-2.7275555h6.95463zm-6.435852 15.8062223c0-5.9008889-3.917148-10.2151112-8.901926-10.2151112-5.052444 0-9.28537 4.3142223-9.28537 10.2151112 0 5.8404444 4.232926 10.0942222 9.28537 10.0942222 4.984778 0 8.901926-4.2537778 8.901926-10.0942222z"/><path d="m169.166667 2.26666667v49.11111113h-7.142593v-49.11111113z"/><path d="m197.000222 41.1626667 5.684 3.808c-1.834518 2.7275555-6.255407 7.4271111-13.894222 7.4271111-9.473333 0-16.548259-7.3591111-16.548259-16.7582222 0-9.9657778 7.135074-16.7582223 15.72874-16.7582223 8.653815 0 12.886741 6.9208889 14.270149 10.6608889l.75937 1.904-22.292407 9.2782222c1.706703 3.3622223 4.36074 5.0773334 8.082407 5.0773334 3.729185 0 6.315556-1.8435556 8.210222-4.6391111zm-17.495592-6.0293334 14.901703-6.2182222c-.819518-2.0928889-3.285592-3.5511111-6.18774-3.5511111-3.721667 0-8.901926 3.3017778-8.713963 9.7693333z"/><path d="m26.5328519 31.2875556v-7.1097778h23.8412222c.233074 1.2391111.3533703 2.7048889.3533703 4.2915555 0 5.3342223-1.451074 11.9302223-6.1275925 16.6297778-4.5487038 4.76-10.3605186 7.2986667-18.0594815 7.2986667-14.2701482 0-26.26970373-11.6808889-26.26970373-26.0213334 0-14.3404444 11.99955553-26.02133329 26.26970373-26.02133329 7.8944444 0 13.5182963 3.11288889 17.7437037 7.17022222l-4.9922963 5.01688887c-3.029963-2.85599998-7.1350741-5.07733331-12.7589259-5.07733331-10.4206667 0-18.57074079 8.43955551-18.57074079 18.91155551s8.15007409 18.9115556 18.57074079 18.9115556c6.7591481 0 10.6086296-2.7275556 13.0747037-5.2057778 1.9999259-2.0097778 3.3156666-4.8808889 3.8344444-8.8022222z"/></g><text fill="#36825c" font-family="Roboto-Medium, Roboto" font-size="42" font-weight="400"><tspan x="260" y="231">Spreadsheets</tspan></text></g></svg>